<svg xmlns="http://www.w3.org/2000/svg" xml:space="preserve" width="100" height="100"><path d="M81.68 9.18h-.201v-.91c0-2.813-2.29-5.1-5.104-5.1H18.05a5.106 5.106 0 0 0-5.102 5.1v77.657c0 .853.23 1.644.6 2.352v3.177a5.38 5.38 0 0 0 5.376 5.375h62.755a5.38 5.38 0 0 0 5.375-5.375v-76.9a5.38 5.38 0 0 0-5.374-5.376z" style="fill:#ccc;stroke-width:1.05973101"/><path d="M82.132 8.597h-.203v-.924A5.18 5.18 0 0 0 76.752 2.5h-59.16a5.18 5.18 0 0 0-5.175 5.173v78.768c0 .865.234 1.667.61 2.385v3.222a5.458 5.458 0 0 0 5.452 5.452H82.13a5.458 5.458 0 0 0 5.452-5.452v-78a5.457 5.457 0 0 0-5.451-5.451Zm-5.38 79.972h-5.085l7.213-7.214v5.084a2.133 2.133 0 0 1-2.129 2.13zm2.127-11.522L67.358 88.57H27.395V5.545h39.944L78.644 16.85l.235-.236zm0-69.374v5.104l-7.233-7.232h5.104a2.13 2.13 0 0 1 2.13 2.128zm-63.414 0a2.13 2.13 0 0 1 2.127-2.127h6.754V88.57h-6.754a2.13 2.13 0 0 1-2.127-2.128zm69.072 84.374a2.408 2.408 0 0 1-2.405 2.406H18.479a2.408 2.408 0 0 1-2.406-2.406v-.687c.484.15.987.254 1.519.254h59.16c1.07 0 2.065-.328 2.892-.886a5.17 5.17 0 0 0 2.284-4.289V11.643h.203a2.408 2.408 0 0 1 2.405 2.406v77.998z" style="fill:#000;stroke-width:1.07487953"/><path d="M51.454 29.813c-9.25 0-16.777 7.526-16.777 16.776s7.527 16.777 16.777 16.777S68.23 55.839 68.23 46.589s-7.526-16.776-16.776-16.776z" style="fill:#fff;stroke-width:1.01270711"/><path d="M51.454 28.783c-9.818 0-17.807 7.988-17.807 17.806 0 9.818 7.989 17.807 17.807 17.807 9.819 0 17.806-7.989 17.806-17.807 0-9.818-7.988-17.806-17.806-17.806zm13.194 11.23h-8.315l-2.595-7.99c4.788.75 8.813 3.8 10.91 7.99zM46.687 50.786l2.38 1.73-3.852 2.796zm-1.603-4.93-3.85-2.799h4.76zm2.592 1.883 1.52-4.68h4.921l1.522 4.68-3.982 2.892zm3.98-12.254 1.472 4.527h-2.942zm4.972 15.3 1.472 4.526-3.85-2.797zm.694-7.728h4.76l-3.851 2.798Zm-7.722-11.1-2.618 8.054H38.26c2.16-4.314 6.364-7.425 11.34-8.054zM36.694 46.59c0-.978.1-1.932.283-2.858l7.118 5.173-2.738 8.424c-2.863-2.694-4.663-6.507-4.663-10.739Zm7.802 13.012 7.16-5.203 6.983 5.073a14.66 14.66 0 0 1-7.186 1.879c-2.514 0-4.882-.634-6.957-1.75zm17.37-2.56-2.645-8.138 6.749-4.905c.152.844.244 1.707.244 2.591 0 4.08-1.665 7.777-4.348 10.453z" style="fill:#000;stroke-width:1.07487953"/></svg>