<svg xmlns="http://www.w3.org/2000/svg" xml:space="preserve" width="100" height="100"><path d="M32.793 98.127a1.686 1.686 0 0 1-.953-2.967l11.281-9.566L25.87 65.877 12.75 77.004a1.686 1.686 0 1 1-2.182-2.573l14.387-12.2a1.685 1.685 0 0 1 2.36.175L46.787 84.66a1.685 1.685 0 0 1-.178 2.397L34.023 97.733c-.356.301-.8.43-1.23.394Z"/><path d="M42.27 83.709a1.686 1.686 0 0 1-.953-2.967l13.405-11.367c.34-.29.783-.43 1.23-.394h.002l2.916.243 10.747-9.104a1.686 1.686 0 1 1 2.181 2.574l-11.281 9.555a1.69 1.69 0 0 1-1.23.394h-.002l-2.917-.243-12.87 10.914c-.354.302-.798.43-1.228.395zM29.572 68.735a1.686 1.686 0 0 1-.953-2.967l14.023-11.893 1.676-17.004a1.69 1.69 0 0 1 .588-1.12l3.395-2.878a1.686 1.686 0 1 1 2.182 2.572l-2.872 2.436-1.676 17.004a1.69 1.69 0 0 1-.588 1.12L30.802 68.341c-.356.301-.8.43-1.23.394zM51.792 41.957a1.687 1.687 0 0 1-.954-2.967l6.156-5.223c5.201-4.41 5.2-4.406 6.335-3.637l-.944 1.397-1.017 1.347 1.017-1.347.881 1.433c-.088.061-.704.51-4.09 3.38l-6.154 5.222c-.356.3-.8.43-1.23.395z"/><path d="M51.577 42.139a1.686 1.686 0 0 1-.953-2.967l10.61-8.999c1.642-1.391 5.448-3.193 8.099-.065 1.617 1.907 1.688 3.52 1.462 4.538-.265 1.2-1.006 1.877-1.152 2l-2.181-2.572c.158-.184.123-.812-.702-1.785-1.122-1.322-3.126.276-3.352.462l-10.603 8.994c-.354.3-.798.43-1.228.394zM70.122 63.457a1.686 1.686 0 0 1-.953-2.967l10.338-8.768c.215-.187 2.12-1.9.996-3.224-.556-.656-1.099-1.014-1.483-.999l-.163.014a1.688 1.688 0 0 1-2.181-2.573c.145-.124.934-.744 2.161-.81 1.043-.058 2.623.28 4.238 2.184 1.395 1.645 1.555 3.67.448 5.7a8.705 8.705 0 0 1-1.836 2.279L71.35 63.06a1.665 1.665 0 0 1-1.228.396z"/><path d="m78.778 47.42-2.18-2.574c.16-.184.125-.81-.7-1.782-1.05-1.238-1.642-.99-1.646-.984a1.688 1.688 0 0 1-2.181-2.573c.847-.716 3.648-1.872 6.4 1.375 1.617 1.908 1.688 3.522 1.46 4.54-.265 1.199-1.008 1.875-1.153 1.999z"/><path d="m74.252 42.08-2.181-2.573c.158-.185.123-.812-.702-1.784-.557-.656-1.089-1.02-1.485-.998-.02 0-.163.014-.163.014a1.686 1.686 0 1 1-2.181-2.572c.146-.124.934-.744 2.162-.81 1.048-.056 2.621.278 4.238 2.185 1.618 1.907 1.688 3.52 1.462 4.538-.264 1.2-1.005 1.877-1.15 2z"/><path d="M50.551 40.086a1.495 1.495 0 0 1-1.061.439c-.384 0-.768-.146-1.061-.439L37.105 28.762a1.5 1.5 0 0 1 0-2.121l4.226-4.226-8.238-12.942a1.5 1.5 0 0 1 2.137-2.026l17.767 12.689a1.503 1.503 0 0 1 .188 2.282l-4.015 4.016 6.456 6.456c.586.585.588 1.538.002 2.123z" style="fill:#000" transform="scale(1.1244) rotate(4.702 101.735 13.24)"/><path d="M76.908 54.129a1.686 1.686 0 0 1 2.377.195l7.833 9.236a1.688 1.688 0 0 1-.196 2.378l-5.126 4.346 8.039 15.267a1.688 1.688 0 0 1-2.583 2.075L68.51 71.766a1.689 1.689 0 0 1 0-2.575l4.87-4.131-2.823-3.332a1.686 1.686 0 0 1 .195-2.377z"/><path d="M25.813 72.826a1.686 1.686 0 0 1-1.193-2.878l3.573-3.573a1.686 1.686 0 1 1 2.384 2.385l-3.572 3.572c-.328.33-.76.494-1.192.494z" style="stroke-width:1.12440324" transform="rotate(4.702 -38.655 -12.566)"/><g stroke-miterlimit="10" style="fill:#fff"><path d="M32.8 16.6 28.3 1H16.2l-4.5 15.6M11.7 31.4 16.2 47H28.3l4.5-15.6" style="fill:#fff;stroke:#000;stroke-width:2;stroke-miterlimit:10" transform="rotate(-40.298 102.514 -3.366) scale(.54815)"/></g><g stroke-miterlimit="10" transform="rotate(-40.298 119.401 79.695) scale(.54815)"><circle cx="101.27" cy="87.222" r="12.7" style="fill:none;stroke:#000;stroke-width:2;stroke-miterlimit:10" transform="rotate(-23.307)"/><path d="M22.2 14.3V24h6.1" style="fill:none;stroke:#000;stroke-width:2;stroke-miterlimit:10" transform="translate(105.316 16.036)"/></g></svg>