<svg xmlns="http://www.w3.org/2000/svg" xml:space="preserve" width="100" height="100"><path d="M64.932 67.772a5.843 5.843 0 0 1 1.152 2.574c.179.88.129 1.821-.143 2.711-.978 2.932-4.14 4.546-7.067 3.617l-14.612-4.742-.693 2.541 14.621 4.743c3.979 1.277 8.998-.863 10.318-4.854.447-1.39.261-3.754-.072-5.118l21.623-10.918c2.799-1.388 6.862-.145 8.23 2.638 1.398 2.817.993 6.33-2.854 8.235L59.309 87.282c-1.835.849-4.208 1.143-6.431.588l-30.35-5.745L1.151 95.004.965 70.401l.106-.062-.078-.163 25.262-12.49s2.666-1.25 5.016-1.087c2.166.15 4.367.831 4.367.831l26.686 8.606a5.639 5.639 0 0 1 2.608 1.736z"/><path d="M64.514 59.663c-10.751 0-20.552-6.336-24.966-16.139-6.19-13.751-.041-29.978 13.708-36.174A27.183 27.183 0 0 1 64.48 4.929c10.751 0 20.548 6.333 24.961 16.131 3.004 6.662 3.23 14.095.642 20.929-2.589 6.836-7.685 12.253-14.349 15.254a27.129 27.129 0 0 1-11.22 2.42zm-.035-50.74c-3.312 0-6.536.696-9.583 2.068-11.742 5.29-16.995 19.149-11.708 30.894A23.428 23.428 0 0 0 64.514 55.67c3.312 0 6.534-.694 9.579-2.066 5.692-2.562 10.045-7.19 12.257-13.028a23.209 23.209 0 0 0-.55-17.874A23.42 23.42 0 0 0 64.479 8.923z"/><path d="M64.953 47.918c-1.707 0-3.419-.289-5.067-.87a1.814 1.814 0 1 1 1.205-3.423c2.832.998 5.898.863 8.639-.369a11.553 11.553 0 0 0 6.091-6.478 11.538 11.538 0 0 0-.271-8.888 11.648 11.648 0 0 0-2.701-3.77 1.818 1.818 0 0 1-.093-2.566 1.821 1.821 0 0 1 2.566-.092 15.284 15.284 0 0 1 3.536 4.938 15.138 15.138 0 0 1 .356 11.665 15.157 15.157 0 0 1-7.995 8.502 15.284 15.284 0 0 1-6.266 1.351zM20.534 8.198h-1.88V44.14c-1.93-1.1-5.026-.9-7.874.712-3.728 2.109-5.613 5.828-4.21 8.308 1.403 2.48 5.562 2.781 9.29.672 2.75-1.556 4.493-3.988 4.656-6.154l.018-.492V20.888c12.408 2.863 10.81 15.705 6.594 22.56h.456c12.219-22.09-7.05-21.15-7.05-35.25Z"/></svg>