<svg xmlns="http://www.w3.org/2000/svg" width="100" height="100" data-name="Layer 1"><path d="M84 2H16a6 6 0 0 0-6 6 6 6 0 0 0 6 6h.21v6a30.17 30.17 0 0 0 19.28 28.29 1.64 1.64 0 0 1 1.11 1.49v.45a1.65 1.65 0 0 1-1.11 1.49A30.16 30.16 0 0 0 16.22 80v6H16a6 6 0 0 0-6 6 6 6 0 0 0 6 6h68a6 6 0 0 0 6-6 6 6 0 0 0-6-6h-.21v-6a30.17 30.17 0 0 0-19.28-28.29 1.64 1.64 0 0 1-1.11-1.49v-.45a1.65 1.65 0 0 1 1.11-1.49A30.16 30.16 0 0 0 83.78 20v-6H84a6 6 0 0 0 6-6 6 6 0 0 0-6-6Zm-8.2 18a22.23 22.23 0 0 1-14.2 20.86 9.57 9.57 0 0 0-6.18 8.92v.45a9.57 9.57 0 0 0 6.18 8.92A22.23 22.23 0 0 1 75.8 80v6H24.2v-6a22.23 22.23 0 0 1 14.2-20.86 9.57 9.57 0 0 0 6.18-8.92v-.45a9.57 9.57 0 0 0-6.18-8.92A22.23 22.23 0 0 1 24.2 20v-6h51.6ZM32.42 30.16a1.79 1.79 0 0 1 1.49-2.8h32.18a1.79 1.79 0 0 1 1.49 2.8 17.33 17.33 0 0 1-7.8 6.05 14.69 14.69 0 0 0-7.71 6.87 2.34 2.34 0 0 1-4.15 0 14.69 14.69 0 0 0-7.71-6.87 17.33 17.33 0 0 1-7.79-6.05zM55 66.36a9.15 9.15 0 0 0 6.26 2.41 9.28 9.28 0 0 1 9 7l.09.39a15.3 15.3 0 0 1 .34 2.76 2 2 0 0 1-2 2.1H31.28a2 2 0 0 1-2-2.1 15.44 15.44 0 0 1 .36-2.89l.1-.42a9.25 9.25 0 0 1 9-6.87A9.15 9.15 0 0 0 45 66.36a14.48 14.48 0 0 0 2.93-3.85 2.35 2.35 0 0 1 2.52-1.24 2.42 2.42 0 0 1 1.67 1.27A14.47 14.47 0 0 0 55 66.36z"/></svg>