<svg xmlns="http://www.w3.org/2000/svg" xml:space="preserve" width="100" height="100"><g transform="matrix(.76551 0 0 .76551 1.008 1.007)"><path d="M97.688 81.52h-11.13l-3.183 4.484h11.674l6.871 12.369H83.033v4.484h21.375l10.564 19.016H66.197v-10.088h-4.484v10.088H12.842l10.038-19.016h21.364v-4.484H25.245l6.529-12.369h12.84a2902.098 2902.098 0 0 1-3.178-4.484H29.067L5.405 126.355h117.189z" style="fill:#000"/><path d="M101.779 33.016C97.956 12.213 77.797-1.553 56.932 2.287 38.807 5.616 25.552 21.61 25.525 41.726c.07 6.526 2.396 13.916 7.072 20.53 9.485 13.413 19.006 26.818 28.518 40.223 1.656 2.334 4.078 2.334 5.733.018 9.512-13.413 19.059-26.792 28.509-40.232 6.211-8.834 8.377-18.645 6.422-29.249zm-54.643 4.342h-5.655c1.065-10.676 9.58-19.191 20.256-20.256v5.655a2.263 2.263 0 1 0 4.526 0v-5.655c10.676 1.065 19.191 9.58 20.256 20.256h-5.655a2.263 2.263 0 1 0 0 4.526h5.655C85.455 52.56 76.94 61.075 66.264 62.14v-5.655a2.263 2.263 0 1 0-4.526 0v5.655c-10.676-1.065-19.191-9.58-20.256-20.256h5.655a2.263 2.263 0 1 0-.001-4.526z" style="fill:#000"/><circle cx="64" cy="39.621" r="7.234" style="fill:#000"/></g></svg>