<svg width="inherit" height="inherit" viewBox="0 0 60 60" fill="none" xmlns="http://www.w3.org/2000/svg">
<g clip-path="url(#clip0_30_339)">
<path d="M41.7209 59.9998H18.2761C17.8268 59.9998 17.3932 59.8222 17.0772 59.5036L0.496275 42.9233C0.177617 42.6046 0 42.1737 0 41.7244V18.2754C0 17.8262 0.177617 17.3926 0.496275 17.0765L17.0772 0.496251C17.3958 0.177605 17.8268 0 18.2761 0H41.7239C42.1732 0 42.6068 0.177605 42.9228 0.496251L59.5037 17.0765C59.8224 17.3952 60 17.8261 60 18.2754V41.722C60 42.1713 59.8224 42.6049 59.5037 42.9209L42.9228 59.5012C42.6042 59.8224 42.1728 59.9998 41.7209 59.9998ZM18.9787 56.6044H41.0183L56.6038 41.0195V18.9804L41.0183 3.39555H18.9787L3.39318 18.9804V41.0219L18.9787 56.6044Z" fill="white"/>
<path fill-rule="evenodd" clip-rule="evenodd" d="M40.5 49.8H24.9C24.9 49.8 27.2412 47.7308 25.5123 43.6891C25.4603 43.6984 25.4016 43.709 25.3369 43.7206C24.449 43.8798 22.4238 44.2431 20.8213 44.4535C19.1033 44.6771 17.6104 43.6441 17.294 42.793C17.1344 42.3596 17.2936 41.7533 17.4397 41.1967C17.582 40.6548 17.7119 40.16 17.5231 39.9178C17.4886 39.8742 17.447 39.8235 17.4001 39.7662C16.918 39.1784 15.8793 37.9118 16.2921 36.8061C16.7451 35.5932 16.5203 34.97 16.5203 34.97C16.5203 34.97 14.0391 34.486 13.81 33.5855C13.5857 32.6889 17.2033 27.1652 17.2033 27.1652C17.2033 27.1652 16.4357 25.818 16.2533 25.0978C16.0726 24.3811 16.2502 20.5175 18.6045 16.1174C20.9557 11.7156 26.3366 10.1439 33.5277 11.0435C40.717 11.9414 44.9503 19.1477 44.9686 23.4832C44.9884 28.9142 42.5542 32.4906 40.7309 35.1694C39.6605 36.7421 38.8007 38.0054 38.7716 39.153C38.6376 44.7213 40.5 49.8 40.5 49.8ZM27.8015 30.4433C20.3036 22.7614 23.7398 15.0719 28.1236 15.0005C30.1895 14.9668 32.4662 16.6257 33.9079 20.7743C28.1314 12.0944 20.8822 22.3942 27.8015 30.4433ZM35.1986 15.1563C42.1178 23.2054 34.8686 33.5062 29.0922 24.8263C33.5928 37.7778 46.2299 26.4584 35.1986 15.1563ZM29.0583 22.9362C29.0583 21.5171 30.2641 20.3666 31.7516 20.3666L31.7515 20.3666C33.2389 20.3666 34.4447 21.5171 34.4447 22.9362C34.4447 24.3553 33.2389 25.5058 31.7515 25.5058C30.2641 25.5058 29.0583 24.3553 29.0583 22.9362Z" fill="white"/>
</g>
<defs>
<clipPath id="clip0_30_339">
<rect width="60" height="60" fill="white"/>
</clipPath>
</defs>
</svg>
