<svg width="60" height="60" viewBox="0 0 60 60" fill="none" xmlns="http://www.w3.org/2000/svg">
<path d="M39.4662 14.4146C41.2072 14.9982 42.6217 15.3514 43.7098 15.4742C44.7979 15.5971 45.8549 15.6585 46.8808 15.6585C47.0673 15.6585 47.2228 15.6585 47.3471 15.6585C47.5026 15.6585 47.658 15.6278 47.8135 15.5664C47.5337 16.9485 47.3938 18.5917 47.3938 20.4959C47.3938 21.663 47.4404 22.8148 47.5337 23.9512C47.658 25.0876 47.8135 26.1933 48 27.2683C46.9119 27.4218 45.7305 27.8365 44.4559 28.5122C43.1813 29.1879 42.0777 29.9864 41.145 30.9078C40.8963 30.7236 40.4766 30.5393 39.8859 30.355C39.3263 30.14 38.689 29.9404 37.974 29.7561C37.29 29.5718 36.5906 29.4336 35.8755 29.3414C35.1916 29.2186 34.6164 29.1572 34.1501 29.1572C33.9947 29.1572 33.7615 29.1879 33.4506 29.2493C33.7304 29.0036 33.948 28.4968 34.1035 27.729C34.2589 26.9304 34.3366 25.9322 34.3366 24.7344C34.3366 24.1201 34.3056 23.4444 34.2434 22.7073C34.2123 21.9395 34.1501 21.233 34.0568 20.5881C33.9947 19.9124 33.9169 19.3442 33.8237 18.8834C33.7615 18.392 33.6838 18.1002 33.5905 18.0081C34.4299 17.8545 35.3626 17.4553 36.3885 16.8103C37.4455 16.1653 38.4714 15.3667 39.4662 14.4146ZM43.3834 18.5149C42.3885 18.4227 41.4093 18.2692 40.4455 18.0542C39.4818 17.8392 38.7512 17.6088 38.2538 17.3631C38.347 18.2538 38.4092 19.0984 38.4403 19.897C38.5025 20.6956 38.5336 21.4941 38.5336 22.2927C38.5336 22.9069 38.518 23.6133 38.4869 24.4119C38.4869 25.1797 38.4559 25.9476 38.3937 26.7154C39.1087 26.7769 39.9015 26.8843 40.7719 27.0379C41.6735 27.1915 42.5129 27.3911 43.2901 27.6368L43.3834 18.5149Z" fill="black"/>
<path d="M26.3628 39.9837C26.3628 41.2123 26.6271 42.0415 27.1556 42.4715C27.6841 42.9015 28.3059 43.1165 29.0209 43.1165C29.5494 43.1165 29.9846 43.0551 30.3266 42.9322C30.0779 43.2394 29.6893 43.6079 29.1608 44.0379C28.6323 44.4679 28.0572 44.9286 27.4354 45.4201C26.8447 45.8808 26.2385 46.3415 25.6167 46.8022C25.026 47.2629 24.5286 47.6621 24.1245 48C23.596 47.7543 22.9587 47.3397 22.2125 46.7561C21.4664 46.1725 20.7203 45.6965 19.9742 45.3279V20.0352C19.6322 20.8338 19.0104 21.4481 18.1089 21.878C17.2073 22.308 16.2436 22.523 15.2177 22.523C14.0674 22.523 12.9948 22.262 12 21.7398C12.8083 21.4941 13.5544 21.1102 14.2384 20.5881C14.9223 20.0352 15.5441 19.4056 16.1037 18.6992C16.6633 17.9621 17.1607 17.1942 17.5959 16.3957C18.0311 15.5664 18.4042 14.7678 18.7151 14C19.2747 14.645 19.8965 15.1671 20.5804 15.5664C21.2643 15.935 21.9638 16.2421 22.6789 16.4878C23.3939 16.7028 24.0623 16.8717 24.6841 16.9946C25.3369 17.1174 25.8965 17.2249 26.3628 17.3171V39.9837Z" fill="black"/>
<path d="M41.7209 59.9998H18.2761C17.8268 59.9998 17.3932 59.8222 17.0772 59.5035L0.496275 42.9233C0.177617 42.6046 0 42.1737 0 41.7244V18.2754C0 17.8261 0.177617 17.3925 0.496275 17.0765L17.0772 0.49625C17.3958 0.177605 17.8268 0 18.2761 0H41.7239C42.1732 0 42.6068 0.177605 42.9228 0.49625L59.5037 17.0765C59.8224 17.3952 60 17.8261 60 18.2754V41.722C60 42.1713 59.8224 42.6048 59.5037 42.9209L42.9228 59.5011C42.6042 59.8224 42.1728 59.9998 41.7209 59.9998ZM18.9787 56.6044H41.0183L56.6038 41.0195V18.9804L41.0183 3.39554H18.9787L3.39318 18.9804V41.0219L18.9787 56.6044Z" fill="black"/>
</svg>
