<svg width="inherit" height="inherit" viewBox="0 0 60 60" fill="none" xmlns="http://www.w3.org/2000/svg">
<path d="M39.9453 14.3652C41.5885 14.9433 42.9236 15.2932 43.9506 15.4149C44.9776 15.5366 45.9753 15.5974 46.9436 15.5974C47.1197 15.5974 47.2664 15.5974 47.3838 15.5974C47.5305 15.5974 47.6772 15.567 47.8239 15.5062C47.5598 16.8753 47.4278 18.503 47.4278 20.3894C47.4278 21.5455 47.4718 22.6865 47.5599 23.8122C47.6772 24.9379 47.8239 26.0332 48 27.0981C46.973 27.2502 45.8579 27.661 44.6549 28.3303C43.4518 28.9997 42.4101 29.7907 41.5298 30.7035C41.2951 30.5209 40.8989 30.3384 40.3414 30.1558C39.8132 29.9429 39.2117 29.7451 38.5368 29.5625C37.8913 29.38 37.231 29.2431 36.5561 29.1518C35.9106 29.0301 35.3677 28.9693 34.9276 28.9693C34.7809 28.9693 34.5608 28.9997 34.2674 29.0605C34.5315 28.8171 34.7369 28.3151 34.8836 27.5545C35.0303 26.7634 35.1036 25.7746 35.1036 24.5881C35.1036 23.9796 35.0743 23.3102 35.0156 22.58C34.9863 21.8194 34.9276 21.1196 34.8396 20.4807C34.7809 19.8113 34.7075 19.2485 34.6195 18.7921C34.5608 18.3053 34.4874 18.0162 34.3994 17.925C35.1917 17.7728 36.072 17.3773 37.0403 16.7384C38.038 16.0995 39.0063 15.3084 39.9453 14.3652ZM43.6425 18.427C42.7035 18.3357 41.7792 18.1836 40.8696 17.9706C39.96 17.7576 39.2704 17.5294 38.8009 17.286C38.8889 18.1684 38.9476 19.0051 38.977 19.7961C39.0356 20.5872 39.065 21.3782 39.065 22.1693C39.065 22.7778 39.0503 23.4775 39.021 24.2686C39.021 25.0292 38.9916 25.7898 38.9329 26.5505C39.6078 26.6113 40.3561 26.7178 41.1777 26.8699C42.0286 27.0221 42.8209 27.2198 43.5545 27.4632L43.6425 18.427Z" fill="black"/>
<path d="M17.898 48C17.6632 47.7566 17.3258 47.4676 16.8857 47.1329C16.4455 46.7678 15.9613 46.4179 15.4332 46.0832C14.905 45.7485 14.3621 45.4595 13.8046 45.2161C13.2471 44.9423 12.7336 44.7597 12.2641 44.6685C12.4402 44.0295 12.5575 43.4362 12.6162 42.8886C12.6749 42.3409 12.7042 41.8237 12.7042 41.3369C12.7042 40.8805 12.6749 40.4698 12.6162 40.1047C12.5869 39.7396 12.5429 39.3897 12.4842 39.055C12.6602 39.0246 12.8363 39.0094 13.0123 39.0094C13.1884 38.979 13.3645 38.9638 13.5405 38.9638C14.5969 38.9638 15.6386 39.268 16.6656 39.8765C17.6926 40.4546 18.6316 41.5499 19.4825 43.1624L23.3998 42.204C23.3998 42.1432 23.3852 41.8846 23.3558 41.4282C23.3558 40.9414 23.3558 40.3785 23.3558 39.7396C23.3558 39.0702 23.3412 38.3553 23.3118 37.5946C23.2825 36.834 23.2678 36.119 23.2678 35.4497C23.2678 34.7803 23.2531 34.2174 23.2238 33.7611C23.2238 33.2743 23.2238 32.9852 23.2238 32.894L18.7783 30.2013L17.0177 31.251L15.2131 28.8322L17.0177 26.7329L18.7783 27.9195L22.9597 26.1396C22.9597 25.3485 22.9304 24.5879 22.8717 23.8577C22.8423 23.0971 22.8276 22.3213 22.8276 21.5302C22.8276 20.8 22.8717 20.0394 22.9597 19.2483C22.4022 19.7655 21.7713 20.1459 21.0671 20.3893C20.3628 20.6327 19.6292 20.7544 18.8663 20.7544C17.4578 20.7544 16.1227 20.4197 14.861 19.7503C13.5992 19.0506 12.6456 18.0617 12 16.7839C12.6456 16.6622 13.3498 16.5101 14.1127 16.3275C14.8756 16.145 15.6239 15.9472 16.3575 15.7342C17.0911 15.4908 17.7806 15.2322 18.4262 14.9584C19.1011 14.6541 19.6879 14.3347 20.1868 14C21.5072 14.9736 22.9304 15.7494 24.4562 16.3275C25.9821 16.9056 27.5372 17.1946 29.1218 17.1946C29.2098 17.1946 29.2978 17.1946 29.3859 17.1946C29.5032 17.1642 29.6206 17.149 29.738 17.149C29.5619 17.6966 29.4152 18.366 29.2978 19.157C29.1805 19.9177 29.0778 20.7391 28.9897 21.6215C28.9017 22.5038 28.843 23.4013 28.8137 24.3141C28.7843 25.2268 28.7697 26.094 28.7697 26.9154C28.1828 27.098 27.6693 27.2653 27.2291 27.4174C26.8183 27.5696 26.4222 27.7369 26.0407 27.9195C25.6593 28.0716 25.2632 28.2389 24.8523 28.4215C24.4415 28.5736 23.972 28.7561 23.4439 28.9691C24.0601 29.3342 24.6909 29.6689 25.3365 29.9732C26.0114 30.247 26.6129 30.4904 27.1411 30.7034C27.6986 30.9163 28.1534 31.0989 28.5056 31.251C28.8577 31.4031 29.0337 31.5248 29.0337 31.6161C29.0337 31.9204 29.0484 32.4528 29.0778 33.2134C29.1071 33.974 29.1511 34.8412 29.2098 35.8148C29.2685 36.7579 29.3272 37.762 29.3859 38.8268C29.4739 39.8613 29.5473 40.8349 29.6059 41.7476C29.694 42.63 29.782 43.3906 29.87 44.0295C29.9581 44.638 30.0314 44.9879 30.0901 45.0792C29.2098 45.0792 28.1828 45.1705 27.0091 45.353C25.8353 45.5356 24.6616 45.7638 23.4879 46.0376C22.3141 46.3114 21.2138 46.6309 20.1868 46.996C19.1891 47.3306 18.4262 47.6653 17.898 48Z" fill="black"/>
<path d="M41.7209 59.9998H18.2761C17.8268 59.9998 17.3932 59.8222 17.0772 59.5035L0.496275 42.9233C0.177617 42.6046 0 42.1737 0 41.7244V18.2754C0 17.8261 0.177617 17.3925 0.496275 17.0765L17.0772 0.49625C17.3958 0.177605 17.8268 0 18.2761 0H41.7239C42.1732 0 42.6068 0.177605 42.9228 0.49625L59.5037 17.0765C59.8224 17.3952 60 17.8261 60 18.2754V41.722C60 42.1713 59.8224 42.6048 59.5037 42.9209L42.9228 59.5011C42.6042 59.8224 42.1728 59.9998 41.7209 59.9998ZM18.9787 56.6044H41.0183L56.6038 41.0195V18.9804L41.0183 3.39554H18.9787L3.39318 18.9804V41.0219L18.9787 56.6044Z" fill="black"/>
</svg>
