<svg width="inherit" height="inherit" viewBox="0 0 60 60" fill="none" xmlns="http://www.w3.org/2000/svg">
<path d="M40.6604 14.4601C42.1577 15.0429 43.3743 15.3956 44.3101 15.5183C45.246 15.641 46.1551 15.7023 47.0374 15.7023C47.1979 15.7023 47.3315 15.7023 47.4385 15.7023C47.5722 15.7023 47.7059 15.6716 47.8396 15.6103C47.5989 16.9905 47.4786 18.6315 47.4786 20.5332C47.4786 21.6987 47.5187 22.8489 47.5989 23.9838C47.7059 25.1186 47.8396 26.2228 48 27.2963C47.0642 27.4497 46.0481 27.8638 44.9519 28.5386C43.8556 29.2134 42.9064 30.0108 42.1042 30.931C41.8903 30.747 41.5294 30.5629 41.0213 30.3789C40.5401 30.1642 39.9919 29.9648 39.3769 29.7808C38.7887 29.5968 38.1871 29.4587 37.5721 29.3667C36.9839 29.244 36.4892 29.1827 36.0882 29.1827C35.9545 29.1827 35.7539 29.2134 35.4865 29.2747C35.7272 29.0293 35.9143 28.5232 36.048 27.7564C36.1817 26.959 36.2486 25.9621 36.2486 24.7659C36.2486 24.1525 36.2218 23.4777 36.1684 22.7415C36.1416 21.9747 36.0882 21.2693 36.0079 20.6252C35.9545 19.9504 35.8876 19.383 35.8074 18.9229C35.7539 18.4321 35.6871 18.1407 35.6069 18.0487C36.3288 17.8954 37.1309 17.4966 38.0133 16.8525C38.9224 16.2084 39.8048 15.4109 40.6604 14.4601ZM44.0294 18.5548C43.1738 18.4628 42.3315 18.3094 41.5026 18.0947C40.6737 17.88 40.0454 17.65 39.6176 17.4046C39.6978 18.2941 39.7513 19.1376 39.778 19.935C39.8315 20.7325 39.8582 21.53 39.8582 22.3275C39.8582 22.9409 39.8449 23.6464 39.8181 24.4438C39.8181 25.2106 39.7914 25.9775 39.7379 26.7443C40.3529 26.8056 41.0347 26.9129 41.7834 27.0663C42.5588 27.2197 43.2807 27.419 43.9492 27.6644L44.0294 18.5548Z" fill="black"/>
<path d="M23.4306 38.1543H18.2166C16.9332 38.1543 15.7834 38.1696 14.7674 38.2003C13.7513 38.2309 12.9759 38.323 12.4412 38.4763C12.5749 37.6175 12.6417 36.9274 12.6417 36.406C12.6417 35.5471 12.5615 34.811 12.4011 34.1976C12.2674 33.5535 12.1337 33.1547 12 33.0014C12.1604 32.8787 12.4813 32.4339 12.9626 31.6671C13.4706 30.8696 14.0455 29.9035 14.6872 28.7686C15.3556 27.6337 16.0508 26.3762 16.7728 24.9959C17.4947 23.585 18.1765 22.2048 18.8182 20.8552C19.46 19.475 20.0081 18.1867 20.4626 16.9905C20.9439 15.7943 21.2514 14.7975 21.3851 14C21.8664 14.6441 22.4413 15.1655 23.1097 15.5643C23.8049 15.963 24.5001 16.3004 25.1953 16.5765C25.9172 16.8218 26.599 17.0059 27.2408 17.1286C27.8825 17.2206 28.3905 17.2819 28.7648 17.3126V33.7835H31.6124C31.6124 33.9982 31.6258 34.3509 31.6526 34.8417C31.6793 35.3324 31.7194 35.8539 31.7729 36.406C31.8531 36.9581 31.9467 37.4948 32.0536 38.0162C32.1873 38.5377 32.3477 38.9517 32.5349 39.2585C32.3477 39.0744 32.1873 38.9211 32.0536 38.7984C31.9199 38.645 31.7729 38.5223 31.6124 38.4303C31.452 38.3383 31.2515 38.277 31.0108 38.2463C30.7702 38.1849 30.4493 38.1543 30.0483 38.1543H28.7648V39.9946C28.7648 41.2215 28.9921 42.0496 29.4467 42.479C29.9012 42.9084 30.436 43.1231 31.0509 43.1231C31.4788 43.1231 31.8531 43.0618 32.174 42.9391C31.9601 43.2458 31.6258 43.6139 31.1713 44.0433C30.7167 44.4727 30.2221 44.9328 29.6873 45.4235C29.1793 45.8836 28.6579 46.3437 28.1231 46.8038C27.6151 47.2639 27.1873 47.6626 26.8397 48C26.3851 47.7546 25.837 47.3866 25.1953 46.8958C24.5803 46.405 23.9653 45.991 23.3504 45.6536L23.4306 38.1543ZM23.7113 20.0271C23.6311 20.2418 23.4707 20.6558 23.23 21.2693C22.9894 21.8521 22.6953 22.5575 22.3477 23.3857C22.0001 24.2138 21.6124 25.1186 21.1846 26.1001C20.7568 27.051 20.3156 28.0018 19.861 28.9526C19.4065 29.9035 18.9386 30.8083 18.4573 31.6671C18.0027 32.4953 17.5615 33.2007 17.1337 33.7835H23.7113V20.0271Z" fill="black"/>
<path d="M41.7209 59.9998H18.2761C17.8268 59.9998 17.3932 59.8222 17.0772 59.5035L0.496275 42.9233C0.177617 42.6046 0 42.1737 0 41.7244V18.2754C0 17.8261 0.177617 17.3925 0.496275 17.0765L17.0772 0.49625C17.3958 0.177605 17.8268 0 18.2761 0H41.7239C42.1732 0 42.6068 0.177605 42.9228 0.49625L59.5037 17.0765C59.8224 17.3952 60 17.8261 60 18.2754V41.722C60 42.1713 59.8224 42.6048 59.5037 42.9209L42.9228 59.5011C42.6042 59.8224 42.1728 59.9998 41.7209 59.9998ZM18.9787 56.6044H41.0183L56.6038 41.0195V18.9804L41.0183 3.39554H18.9787L3.39318 18.9804V41.0219L18.9787 56.6044Z" fill="black"/>
</svg>
