<svg width="60" height="60" viewBox="0 0 60 60" fill="none" xmlns="http://www.w3.org/2000/svg">
<path d="M40.2275 14.3652C41.8131 14.9433 43.1014 15.2931 44.0925 15.4148C45.0835 15.5365 46.0462 15.5974 46.9806 15.5974C47.1505 15.5974 47.2921 15.5974 47.4054 15.5974C47.5469 15.5974 47.6885 15.567 47.8301 15.5061C47.5753 16.8752 47.4478 18.503 47.4478 20.3893C47.4478 21.5455 47.4903 22.6864 47.5752 23.8122C47.6885 24.9379 47.8301 26.0332 48 27.0981C47.009 27.2502 45.933 27.6609 44.772 28.3303C43.6111 28.9996 42.6059 29.7907 41.7565 30.7034C41.53 30.5209 41.1477 30.3383 40.6097 30.1558C40.1 29.9428 39.5196 29.745 38.8683 29.5625C38.2454 29.3799 37.6083 29.243 36.957 29.1518C36.3341 29.0301 35.8103 28.9692 35.3856 28.9692C35.244 28.9692 35.0316 28.9996 34.7485 29.0605C35.0033 28.8171 35.2015 28.3151 35.3431 27.5544C35.4847 26.7634 35.5555 25.7746 35.5555 24.588C35.5555 23.9795 35.5271 23.3101 35.4705 22.5799C35.4422 21.8193 35.3856 21.1195 35.3006 20.4806C35.244 19.8113 35.1732 19.2484 35.0883 18.792C35.0316 18.3052 34.9608 18.0162 34.8759 17.9249C35.6404 17.7728 36.4898 17.3773 37.4242 16.7383C38.387 16.0994 39.3214 15.3084 40.2275 14.3652ZM43.7952 18.4269C42.8891 18.3356 41.9972 18.1835 41.1194 17.9705C40.2416 17.7576 39.5762 17.5294 39.1232 17.286C39.2081 18.1683 39.2647 19.005 39.2931 19.796C39.3497 20.5871 39.378 21.3781 39.378 22.1692C39.378 22.7777 39.3639 23.4775 39.3355 24.2685C39.3355 25.0292 39.3072 25.7898 39.2506 26.5504C39.9018 26.6113 40.6239 26.7177 41.4167 26.8699C42.2378 27.022 43.0023 27.2198 43.7102 27.4632L43.7952 18.4269Z" fill="black"/>
<path d="M30.0509 27.9651C30.0509 28.2694 30.0509 28.8931 30.0509 29.8362C30.0509 30.749 30.0509 31.8291 30.0509 33.0765C30.0792 34.2935 30.0934 35.5866 30.0934 36.9557C30.1217 38.3248 30.15 39.6027 30.1783 40.7893C30.235 41.9454 30.2775 42.9342 30.3058 43.7557C30.3624 44.5468 30.419 44.9879 30.4757 45.0792C29.6262 45.0792 28.6918 45.1705 27.6725 45.353C26.6814 45.5356 25.6904 45.7638 24.6994 46.0376C23.7367 46.3114 22.8305 46.6309 21.9811 46.996C21.16 47.3306 20.4946 47.6653 19.9849 48C18.5691 46.2049 16.9552 45.3074 15.143 45.3074C14.067 45.3074 13.0193 45.5508 12 46.0376C12.6796 44.2729 13.5432 42.9494 14.5908 42.0671C15.6668 41.1848 16.7994 40.7436 17.9887 40.7436C18.3285 40.7436 18.7815 40.7893 19.3478 40.8805C19.9141 40.9718 20.4945 41.0935 21.0892 41.2456C21.6838 41.3978 22.2501 41.5955 22.7881 41.8389C23.3261 42.0823 23.7508 42.3562 24.0623 42.6604C24.0623 42.5996 24.0623 42.3257 24.0623 41.8389C24.0623 41.3521 24.0481 40.7436 24.0198 40.0134C24.0198 39.2528 24.0056 38.4313 23.9773 37.549C23.9773 36.6362 23.9632 35.7387 23.9349 34.8564C23.9349 33.9436 23.9349 33.1069 23.9349 32.3463C23.9349 31.5553 23.9349 30.9011 23.9349 30.3839C23.1704 30.7186 22.4058 31.0532 21.6413 31.3879C20.9051 31.7226 20.2256 32.0421 19.6026 32.3463C18.9797 32.6201 18.4417 32.8635 17.9887 33.0765C17.5639 33.2591 17.2808 33.3808 17.1392 33.4416C16.7994 33.2286 16.3322 33.0004 15.7376 32.757C15.143 32.4832 14.5625 32.2094 13.9962 31.9356C14.2794 31.1445 14.4634 30.1101 14.5484 28.8322C14.6616 27.5544 14.7183 26.1852 14.7183 24.7248C14.7183 23.5991 14.69 22.4734 14.6333 21.3477C14.5767 20.2219 14.5059 19.1723 14.4209 18.1987C14.336 17.2251 14.2369 16.3732 14.1236 15.643C14.0387 14.9127 13.9538 14.3803 13.8688 14.0456C15.3129 14.4412 16.7428 14.7606 18.1586 15.004C19.6026 15.2474 21.0467 15.3691 22.4908 15.3691C23.8782 15.3691 25.2232 15.3083 26.5257 15.1866C27.8565 15.0344 29.2015 14.6389 30.5606 14C30.4473 14.7911 30.2774 15.5365 30.0509 16.2362C29.8244 16.9056 29.4846 17.5141 29.0316 18.0617C28.5785 18.579 27.9698 18.9897 27.2053 19.294C26.4691 19.5982 25.5347 19.7503 24.4021 19.7503C23.8358 19.7503 23.1562 19.6591 22.3634 19.4765C21.5705 19.2635 20.7777 19.0353 19.9849 18.7919C20.0132 18.9745 20.0273 19.2787 20.0273 19.7047C20.0557 20.1306 20.0698 20.587 20.0698 21.0738C20.0981 21.5606 20.1123 22.017 20.1123 22.443C20.1123 22.8689 20.1123 23.1732 20.1123 23.3557C20.1123 24.1468 20.084 24.9226 20.0273 25.6832C19.999 26.4134 19.9849 27.174 19.9849 27.9651L26.6106 25.3181L30.0509 27.9651Z" fill="black"/>
<path d="M41.7209 59.9998H18.2761C17.8268 59.9998 17.3932 59.8222 17.0772 59.5035L0.496275 42.9233C0.177617 42.6046 0 42.1737 0 41.7244V18.2754C0 17.8261 0.177617 17.3925 0.496275 17.0765L17.0772 0.49625C17.3958 0.177605 17.8268 0 18.2761 0H41.7239C42.1732 0 42.6068 0.177605 42.9228 0.49625L59.5037 17.0765C59.8224 17.3952 60 17.8261 60 18.2754V41.722C60 42.1713 59.8224 42.6048 59.5037 42.9209L42.9228 59.5011C42.6042 59.8224 42.1728 59.9998 41.7209 59.9998ZM18.9787 56.6044H41.0183L56.6038 41.0195V18.9804L41.0183 3.39554H18.9787L3.39318 18.9804V41.0219L18.9787 56.6044Z" fill="black"/>
</svg>
