<svg width="inherit" height="inherit" viewBox="0 0 60 60" fill="none" xmlns="http://www.w3.org/2000/svg">
<path d="M41.7209 59.9998H18.2761C17.8268 59.9998 17.3932 59.8222 17.0772 59.5035L0.496275 42.9233C0.177617 42.6046 0 42.1737 0 41.7244V18.2754C0 17.8261 0.177617 17.3925 0.496275 17.0765L17.0772 0.49625C17.3958 0.177605 17.8268 0 18.2761 0H41.7239C42.1732 0 42.6068 0.177605 42.9228 0.49625L59.5037 17.0765C59.8224 17.3952 60 17.8261 60 18.2754V41.722C60 42.1713 59.8224 42.6048 59.5037 42.9209L42.9228 59.5011C42.6042 59.8224 42.1728 59.9998 41.7209 59.9998ZM18.9787 56.6044H41.0183L56.6038 41.0195V18.9804L41.0183 3.39554H18.9787L3.39318 18.9804V41.0219L18.9787 56.6044Z" fill="white"/>
<path d="M40.4692 14.4416C42.0055 15.0009 43.2538 15.3394 44.214 15.4572C45.1742 15.5749 46.107 15.6338 47.0124 15.6338C47.177 15.6338 47.3141 15.6338 47.4239 15.6338C47.561 15.6338 47.6982 15.6044 47.8354 15.5455C47.5885 16.8702 47.465 18.4451 47.465 20.2702C47.465 21.3888 47.5062 22.4927 47.5885 23.5818C47.6982 24.671 47.8354 25.7308 48 26.7611C47.0398 26.9083 45.9973 27.3057 44.8724 27.9533C43.7476 28.6009 42.7737 29.3663 41.9506 30.2494C41.7312 30.0728 41.3608 29.8961 40.8395 29.7195C40.3457 29.5135 39.7833 29.3221 39.1523 29.1455C38.5487 28.9689 37.9315 28.8364 37.3005 28.7481C36.6969 28.6303 36.1894 28.5715 35.7778 28.5715C35.6407 28.5715 35.4349 28.6009 35.1606 28.6598C35.4075 28.4243 35.5995 27.9386 35.7367 27.2026C35.8739 26.4373 35.9424 25.4806 35.9424 24.3325C35.9424 23.7438 35.915 23.0961 35.8601 22.3896C35.8327 21.6537 35.7778 20.9767 35.6955 20.3585C35.6407 19.7109 35.5721 19.1663 35.4898 18.7247C35.4349 18.2537 35.3663 17.9741 35.284 17.8857C36.0247 17.7386 36.8478 17.3559 37.7531 16.7377C38.6859 16.1195 39.5913 15.3541 40.4692 14.4416ZM43.9259 18.3715C43.048 18.2831 42.1838 18.136 41.3334 17.9299C40.4829 17.7238 39.8382 17.5031 39.3992 17.2676C39.4815 18.1212 39.5364 18.9308 39.5638 19.6961C39.6187 20.4615 39.6461 21.2269 39.6461 21.9922C39.6461 22.581 39.6324 23.258 39.605 24.0234C39.605 24.7593 39.5775 25.4953 39.5227 26.2312C40.1537 26.2901 40.8533 26.3931 41.6214 26.5403C42.417 26.6875 43.1578 26.8788 43.8436 27.1143L43.9259 18.3715Z" fill="white"/>
<path d="M13.4815 48C13.1523 46.7342 12.9877 45.3654 12.9877 43.8935C12.9877 42.0978 13.2346 40.2874 13.7284 38.4623C14.2496 36.6372 14.9767 34.9152 15.9094 33.2961C16.8697 31.6771 18.0219 30.2199 19.3662 28.9247C20.7105 27.6294 22.2332 26.6139 23.9341 25.8779V19.2987C22.7818 19.7991 21.6159 20.1818 20.4362 20.4468C19.2565 20.6823 18.0905 20.8 16.9383 20.8C15.8683 20.8 14.8944 20.6823 14.0165 20.4468C13.1385 20.1818 12.4664 19.755 12 19.1662C12.5213 19.0485 13.166 18.813 13.9342 18.4597C14.7298 18.1065 15.5116 17.6944 16.2798 17.2234C17.0754 16.7229 17.8162 16.1931 18.502 15.6338C19.2153 15.0745 19.764 14.5299 20.1481 14C20.834 14.6182 21.6159 15.2069 22.4938 15.7662C23.3991 16.2961 24.2908 16.7671 25.1687 17.1792C26.074 17.5619 26.9108 17.871 27.6789 18.1065C28.4745 18.342 29.1055 18.4597 29.5719 18.4597C29.7914 18.4597 29.9286 18.445 29.9835 18.4156C29.8463 18.6511 29.7365 19.0043 29.6542 19.4753C29.5994 19.9169 29.5719 20.3879 29.5719 20.8883V24.1558C29.5719 24.5091 29.5994 24.9212 29.6542 25.3922C29.7091 25.8632 29.7777 26.3342 29.86 26.8052C29.9697 27.2762 30.0932 27.7325 30.2304 28.174C30.395 28.5861 30.5733 28.9394 30.7653 29.2338C28.7077 29.6459 26.9656 30.1905 25.539 30.8675C24.1399 31.5446 22.9602 32.3394 22 33.2519C21.0672 34.1351 20.299 35.1212 19.6954 36.2104C19.1193 37.2996 18.6255 38.4623 18.214 39.6987C18.845 39.4926 19.5171 39.316 20.2304 39.1688C20.9711 38.9922 21.7119 38.9039 22.4526 38.9039C24.0438 38.9039 25.3196 39.11 26.2798 39.5221C27.24 39.9048 27.9533 40.2286 28.4197 40.4935C28.6117 40.3463 28.9135 40.1108 29.325 39.787C29.764 39.4338 30.3813 39.2571 31.1769 39.2571C31.6158 39.2571 32.0411 39.316 32.4526 39.4338L27.144 46.8078C26.3758 46.2779 25.539 45.7922 24.6337 45.3506C23.7558 44.8797 22.6584 44.6442 21.3415 44.6442C20.2441 44.6442 19.037 44.8944 17.7201 45.3948C16.4033 45.8658 14.9904 46.7342 13.4815 48Z" fill="white"/>
</svg>
