<svg width="60" height="60" viewBox="0 0 60 60" fill="none" xmlns="http://www.w3.org/2000/svg">
<path d="M39.9521 14.3652C41.5939 14.9433 42.9279 15.2931 43.954 15.4148C44.9802 15.5365 45.977 15.5974 46.9445 15.5974C47.1204 15.5974 47.267 15.5974 47.3843 15.5974C47.5309 15.5974 47.6775 15.567 47.8241 15.5061C47.5602 16.8752 47.4283 18.503 47.4283 20.3893C47.4283 21.5455 47.4722 22.6864 47.5602 23.8122C47.6775 24.9379 47.8241 26.0332 48 27.0981C46.9739 27.2502 45.8598 27.6609 44.6577 28.3303C43.4557 28.9996 42.4149 29.7907 41.5353 30.7034C41.3008 30.5209 40.9049 30.3383 40.3479 30.1558C39.8202 29.9428 39.2192 29.745 38.5448 29.5625C37.8998 29.3799 37.2402 29.243 36.5658 29.1517C35.9208 29.03 35.3785 28.9692 34.9387 28.9692C34.7921 28.9692 34.5722 28.9996 34.279 29.0605C34.5429 28.8171 34.7481 28.3151 34.8947 27.5544C35.0413 26.7634 35.1146 25.7746 35.1146 24.588C35.1146 23.9795 35.0853 23.3101 35.0266 22.5799C34.9973 21.8193 34.9387 21.1195 34.8507 20.4806C34.7921 19.8113 34.7188 19.2484 34.6308 18.792C34.5722 18.3052 34.4989 18.0162 34.4109 17.9249C35.2025 17.7728 36.0821 17.3773 37.0496 16.7383C38.0464 16.0994 39.0139 15.3084 39.9521 14.3652ZM43.6462 18.4269C42.708 18.3356 41.7845 18.1835 40.8756 17.9705C39.9668 17.7576 39.2778 17.5294 38.8087 17.286C38.8966 18.1683 38.9553 19.005 38.9846 19.796C39.0432 20.5871 39.0725 21.3781 39.0725 22.1692C39.0725 22.7777 39.0579 23.4775 39.0286 24.2685C39.0286 25.0292 38.9993 25.7898 38.9406 26.5504C39.6149 26.6113 40.3626 26.7177 41.1835 26.8699C42.0337 27.022 42.8253 27.2198 43.5583 27.4632L43.6462 18.4269Z" fill="black"/>
<path d="M19.784 48C19.2563 47.6653 18.7139 47.3306 18.1569 46.996C17.6291 46.6309 17.0427 46.3114 16.3977 46.0376C15.7821 45.7638 15.1077 45.5356 14.3748 45.353C13.6711 45.1705 12.8795 45.0792 12 45.0792C12.0586 44.5924 12.1466 43.9687 12.2639 43.2081C12.4104 42.417 12.5571 41.4586 12.7037 40.3329C12.8502 39.1767 12.9822 37.8532 13.0994 36.3624C13.2167 34.8412 13.2754 33.1221 13.2754 31.2054C13.2754 30.2622 13.2607 29.0908 13.2314 27.6913C13.202 26.2917 13.1434 24.8922 13.0554 23.4926C12.9968 22.0931 12.9089 20.8152 12.7916 19.6591C12.6743 18.4725 12.5277 17.6358 12.3518 17.149C12.4691 17.149 12.5717 17.1642 12.6597 17.1946C12.7769 17.1946 12.8796 17.1946 12.9675 17.1946C14.5507 17.1946 16.1046 16.9056 17.6291 16.3275C19.1537 15.7494 20.5756 14.9736 21.8949 14C22.364 14.3347 22.9211 14.6541 23.5661 14.9584C24.2404 15.2322 24.944 15.4908 25.677 15.7342C26.4393 15.9472 27.2016 16.145 27.9638 16.3275C28.7261 16.5101 29.4297 16.6622 30.0747 16.7839C29.4297 18.0617 28.4769 19.0506 27.2162 19.7503C25.9555 20.4197 24.6215 20.7544 23.2143 20.7544C22.452 20.7544 21.719 20.6327 21.0154 20.3893C20.3118 20.1459 19.6814 19.7655 19.1244 19.2483C19.2123 20.0394 19.2563 20.8 19.2563 21.5302C19.2563 21.9257 19.2416 22.443 19.2123 23.0819C19.2123 23.6904 19.1977 24.3293 19.1683 24.9987C19.1683 25.6376 19.1537 26.2765 19.1244 26.9154C19.1244 27.5239 19.1244 28.0259 19.1244 28.4215L24.4896 24.953C25.1933 25.8049 25.9849 26.5199 26.8644 27.098C27.744 27.6456 28.7114 28.102 29.7669 28.4671C29.5324 29.532 29.3564 30.6577 29.2392 31.8443C29.1512 33.0004 29.1072 34.1718 29.1072 35.3584C29.1072 37.1839 29.1805 38.9181 29.3271 40.5611C29.503 42.1736 29.6643 43.5427 29.8109 44.6685C28.7847 44.6685 27.7586 44.7749 26.7324 44.9879C25.7063 45.2009 24.7388 45.4747 23.8299 45.8094C22.9504 46.1441 22.1441 46.5092 21.4112 46.9047C20.7075 47.3002 20.1652 47.6653 19.784 48ZM21.1033 43.1624C21.1913 42.8886 21.3672 42.6452 21.6311 42.4322C21.8949 42.1888 22.1588 41.9758 22.4227 41.7933C22.7159 41.6107 22.9797 41.4738 23.2143 41.3825C23.4488 41.2608 23.5954 41.1696 23.654 41.1087V29.7906L19.0364 32.894V41.5651L21.1033 43.1624Z" fill="black"/>
<path d="M41.7209 59.9998H18.2761C17.8268 59.9998 17.3932 59.8222 17.0772 59.5035L0.496275 42.9233C0.177617 42.6046 0 42.1737 0 41.7244V18.2754C0 17.8261 0.177617 17.3925 0.496275 17.0765L17.0772 0.49625C17.3958 0.177605 17.8268 0 18.2761 0H41.7239C42.1732 0 42.6068 0.177605 42.9228 0.49625L59.5037 17.0765C59.8224 17.3952 60 17.8261 60 18.2754V41.722C60 42.1713 59.8224 42.6048 59.5037 42.9209L42.9228 59.5011C42.6042 59.8224 42.1728 59.9998 41.7209 59.9998ZM18.9787 56.6044H41.0183L56.6038 41.0195V18.9804L41.0183 3.39554H18.9787L3.39318 18.9804V41.0219L18.9787 56.6044Z" fill="black"/>
</svg>
