<svg width="inherit" height="inherit" viewBox="0 0 60 60" fill="none" xmlns="http://www.w3.org/2000/svg">
<path d="M40.2834 14.3691C41.8576 14.9535 43.1367 15.3072 44.1206 15.4302C45.1045 15.5532 46.0603 15.6147 46.988 15.6147C47.1566 15.6147 47.2972 15.6147 47.4096 15.6147C47.5502 15.6147 47.6908 15.584 47.8313 15.5225C47.5783 16.9065 47.4518 18.5519 47.4518 20.4587C47.4518 21.6274 47.494 22.7807 47.5783 23.9187C47.6907 25.0566 47.8313 26.1638 48 27.2402C47.0161 27.394 45.9478 27.8092 44.7953 28.4858C43.6427 29.1624 42.6447 29.9621 41.8014 30.8847C41.5765 30.7002 41.197 30.5157 40.6629 30.3311C40.1568 30.1159 39.5806 29.916 38.934 29.7314C38.3156 29.5469 37.683 29.4085 37.0365 29.3162C36.418 29.1932 35.898 29.1317 35.4763 29.1317C35.3357 29.1317 35.1249 29.1624 34.8438 29.224C35.0968 28.9779 35.2936 28.4705 35.4341 27.7016C35.5747 26.9019 35.645 25.9024 35.645 24.7029C35.645 24.0878 35.6168 23.4112 35.5606 22.6731C35.5325 21.9042 35.4763 21.1968 35.3919 20.551C35.3357 19.8743 35.2655 19.3054 35.1811 18.844C35.1249 18.352 35.0546 18.0598 34.9703 17.9675C35.7293 17.8137 36.5726 17.4139 37.5003 16.7681C38.4561 16.1222 39.3838 15.3226 40.2834 14.3691ZM43.8254 18.475C42.9258 18.3827 42.0403 18.2289 41.1689 18.0136C40.2974 17.7984 39.6368 17.5677 39.187 17.3216C39.2713 18.2136 39.3276 19.0593 39.3557 19.859C39.4119 20.6586 39.44 21.4582 39.44 22.2579C39.44 22.873 39.426 23.5804 39.3979 24.38C39.3979 25.1489 39.3697 25.9178 39.3135 26.6866C39.9601 26.7482 40.6769 26.8558 41.464 27.0096C42.2793 27.1634 43.0383 27.3633 43.7411 27.6093L43.8254 18.475Z" fill="white"/>
<path d="M25.4092 38.7273C25.7184 39.3424 26.0979 39.8498 26.5477 40.2497C27.0256 40.6495 27.5457 40.9724 28.1079 41.2185C27.63 41.28 27.1381 41.4952 26.6321 41.8643C26.126 42.2334 25.6341 42.7255 25.1562 43.3406C24.7064 43.9557 24.3128 44.663 23.9755 45.4627C23.6382 46.2623 23.4133 47.1081 23.3008 48C22.4294 47.5387 21.572 46.9851 20.7286 46.3392C19.9134 45.6626 19.1684 44.9245 18.4938 44.1248C17.8472 43.2944 17.3271 42.4025 16.9336 41.4491C16.54 40.4957 16.3432 39.5115 16.3432 38.4966C16.3432 36.8358 16.6946 35.1443 17.3974 33.422C18.1283 31.6689 18.9857 30.0081 19.9696 28.4396C20.9816 26.8403 22.0358 25.3795 23.1322 24.057C24.2285 22.7345 25.1562 21.6427 25.9152 20.7815C24.9875 21.0276 24.0739 21.2429 23.1743 21.4274C22.3029 21.6119 21.3893 21.7042 20.4335 21.7042C19.7588 21.7042 19.07 21.6427 18.3672 21.5197C17.6645 21.3967 16.9195 21.1967 16.1324 20.9199C15.9075 21.5658 15.542 22.227 15.036 22.9037C14.5581 23.5495 13.9397 23.8725 13.1807 23.8725C12.759 23.8725 12.3654 23.8109 12 23.6879C12.4217 22.8575 12.7731 22.104 13.0542 21.4274C13.3634 20.72 13.6023 20.0127 13.771 19.3053C13.9678 18.5672 14.1224 17.7829 14.2349 16.9525C14.3754 16.0914 14.4879 15.1072 14.5722 14C15.8372 14.6459 17.2006 15.1226 18.6624 15.4301C20.1242 15.7377 21.6563 15.8915 23.2587 15.8915C24.8891 15.8915 26.4915 15.7531 28.0657 15.4763C29.6681 15.1687 31.1861 14.7535 32.6198 14.2307C32.2825 15.3071 32.1138 16.2913 32.1138 17.1832C32.1138 17.7368 32.17 18.1981 32.2825 18.5672C30.7925 20.72 29.4432 22.6576 28.2344 24.3799C27.0256 26.1022 25.9855 27.7169 25.114 29.2239C24.2707 30.7001 23.6101 32.1149 23.1322 33.4681C22.6824 34.7906 22.4575 36.1438 22.4575 37.5278C22.4575 38.0199 22.584 38.512 22.837 39.0041C23.09 39.4962 23.4133 39.7422 23.8068 39.7422C24.0317 39.7422 24.2566 39.6346 24.4815 39.4193C24.7064 39.1732 25.0156 38.9426 25.4092 38.7273Z" fill="white"/>
<path d="M41.7209 59.9998H18.2761C17.8268 59.9998 17.3932 59.8222 17.0772 59.5035L0.496275 42.9233C0.177617 42.6046 0 42.1737 0 41.7244V18.2754C0 17.8261 0.177617 17.3925 0.496275 17.0765L17.0772 0.49625C17.3958 0.177605 17.8268 0 18.2761 0H41.7239C42.1732 0 42.6068 0.177605 42.9228 0.49625L59.5037 17.0765C59.8224 17.3952 60 17.8261 60 18.2754V41.722C60 42.1713 59.8224 42.6048 59.5037 42.9209L42.9228 59.5011C42.6042 59.8224 42.1728 59.9998 41.7209 59.9998ZM18.9787 56.6044H41.0183L56.6038 41.0195V18.9804L41.0183 3.39554H18.9787L3.39318 18.9804V41.0219L18.9787 56.6044Z" fill="white"/>
</svg>
