<svg width="inherit" height="inherit" viewBox="0 0 60 60" fill="none" xmlns="http://www.w3.org/2000/svg">
<path d="M39.9976 14.4456C41.6301 15.0101 42.9566 15.3517 43.9769 15.4705C44.9973 15.5894 45.9885 15.6488 46.9505 15.6488C47.1254 15.6488 47.2712 15.6488 47.3878 15.6488C47.5336 15.6488 47.6793 15.6191 47.8251 15.5597C47.5627 16.8965 47.4315 18.4858 47.4315 20.3277C47.4315 21.4566 47.4752 22.5706 47.5627 23.6698C47.6793 24.7689 47.8251 25.8384 48 26.8782C46.9797 27.0267 45.8719 27.4277 44.6766 28.0813C43.4813 28.7349 42.4464 29.5072 41.5718 30.3985C41.3386 30.2202 40.945 30.042 40.3911 29.8637C39.8664 29.6558 39.2688 29.4627 38.5982 29.2844C37.9569 29.1062 37.3009 28.9725 36.6304 28.8834C35.989 28.7646 35.4497 28.7051 35.0125 28.7051C34.8667 28.7051 34.648 28.7349 34.3565 28.7943C34.6189 28.5566 34.8229 28.0664 34.9687 27.3238C35.1145 26.5514 35.1874 25.5859 35.1874 24.4273C35.1874 23.8332 35.1582 23.1796 35.0999 22.4666C35.0707 21.7239 35.0124 21.0407 34.925 20.4168C34.8667 19.7633 34.7938 19.2137 34.7063 18.7681C34.648 18.2927 34.5751 18.0105 34.4877 17.9214C35.2748 17.7729 36.1494 17.3867 37.1114 16.7628C38.1026 16.139 39.0647 15.3666 39.9976 14.4456ZM43.6708 18.4116C42.7379 18.3225 41.8196 18.1739 40.9159 17.966C40.0121 17.758 39.327 17.5352 38.8606 17.2975C38.9481 18.1591 39.0064 18.976 39.0355 19.7484C39.0938 20.5208 39.123 21.2932 39.123 22.0656C39.123 22.6597 39.1084 23.343 39.0793 24.1154C39.0793 24.8581 39.0501 25.6007 38.9918 26.3434C39.6623 26.4028 40.4057 26.5068 41.222 26.6553C42.0674 26.8039 42.8545 26.997 43.5834 27.2346L43.6708 18.4116Z" fill="white"/>
<path d="M12.2187 17.7877C13.0932 17.6689 13.895 17.5203 14.6238 17.3421C15.3817 17.1638 16.1251 16.941 16.8539 16.6737C17.5828 16.3766 18.3408 16.0201 19.1279 15.6042C19.915 15.1586 20.7896 14.6239 21.7516 14C23.2384 15.2477 24.6669 16.0944 26.0371 16.54C27.4364 16.9856 28.8941 17.2381 30.41 17.2975C30.41 17.7431 30.2642 18.159 29.9727 18.5452C29.7103 18.9314 29.4625 19.1691 29.2293 19.2582V28.7942L24.5503 29.2398L28.2235 30.5321L29.2293 31.7798V41.9843C27.9757 42.2813 26.8534 42.6972 25.8622 43.232C24.871 43.7667 23.9964 44.3311 23.2384 44.9253C22.5096 45.4897 21.8828 46.0542 21.358 46.6186C20.8624 47.183 20.4835 47.6435 20.2211 48C19.7838 47.4059 19.2008 46.7671 18.4719 46.0839C17.7431 45.4006 16.9706 44.7619 16.1543 44.1678C15.3672 43.5439 14.5946 42.9943 13.8367 42.519C13.0787 42.0437 12.4664 41.7169 12 41.5387C12.1458 41.1822 12.2478 40.6029 12.3061 39.8008C12.3644 38.9987 12.3936 38.0481 12.3936 36.9489C12.3936 36.028 12.379 35.0179 12.3498 33.9187C12.3498 32.7899 12.3498 31.6758 12.3498 30.5767L17.5099 29.2398L12.3498 28.7942C12.3498 27.8733 12.3353 26.8781 12.3061 25.8086C12.3061 24.7095 12.2916 23.6549 12.2624 22.6448C12.2624 21.6348 12.2478 20.699 12.2187 19.8375C12.2187 18.976 12.2187 18.2927 12.2187 17.7877ZM23.0198 32.0026L20.9645 30.2202L18.1221 31.6016V38.1075C18.1804 38.1669 18.3845 38.3303 18.7343 38.5976C19.1133 38.8353 19.5506 39.1324 20.0462 39.4889C20.5709 39.8156 21.0957 40.1573 21.6204 40.5138C22.1743 40.8702 22.6408 41.1822 23.0198 41.4495V32.0026ZM18.2533 17.8768C18.2824 18.6789 18.297 19.8226 18.297 21.308C18.297 22.7637 18.3116 24.3381 18.3407 26.0315L20.3523 27.9921L23.0635 27.3683V20.9069C22.3055 20.5505 21.5621 20.1494 20.8333 19.7038C20.1336 19.2285 19.2736 18.6195 18.2533 17.8768Z" fill="white"/>
<path d="M41.7209 59.9998H18.2761C17.8268 59.9998 17.3932 59.8222 17.0772 59.5035L0.496275 42.9233C0.177617 42.6046 0 42.1737 0 41.7244V18.2754C0 17.8261 0.177617 17.3925 0.496275 17.0765L17.0772 0.49625C17.3958 0.177605 17.8268 0 18.2761 0H41.7239C42.1732 0 42.6068 0.177605 42.9228 0.49625L59.5037 17.0765C59.8224 17.3952 60 17.8261 60 18.2754V41.722C60 42.1713 59.8224 42.6048 59.5037 42.9209L42.9228 59.5011C42.6042 59.8224 42.1728 59.9998 41.7209 59.9998ZM18.9787 56.6044H41.0183L56.6038 41.0195V18.9804L41.0183 3.39554H18.9787L3.39318 18.9804V41.0219L18.9787 56.6044Z" fill="white"/>
</svg>
