<svg width="inherit" height="inherit" viewBox="0 0 60 60" fill="none" xmlns="http://www.w3.org/2000/svg">
<path d="M39.9428 14.3652C41.5865 14.9433 42.9221 15.2931 43.9494 15.4148C44.9767 15.5365 45.9747 15.5974 46.9433 15.5974C47.1194 15.5974 47.2662 15.5974 47.3836 15.5974C47.5304 15.5974 47.6771 15.567 47.8239 15.5061C47.5597 16.8752 47.4276 18.503 47.4276 20.3893C47.4276 21.5455 47.4716 22.6864 47.5597 23.8122C47.6771 24.9379 47.8239 26.0332 48 27.0981C46.9727 27.2502 45.8572 27.6609 44.6538 28.3303C43.4503 28.9996 42.4084 29.7907 41.5278 30.7034C41.293 30.5209 40.8967 30.3383 40.339 30.1558C39.8107 29.9428 39.2089 29.745 38.5338 29.5625C37.8881 29.3799 37.2276 29.243 36.5525 29.1518C35.9068 29.0301 35.3638 28.9692 34.9235 28.9692C34.7767 28.9692 34.5566 28.9996 34.2631 29.0605C34.5272 28.8171 34.7327 28.3151 34.8795 27.5544C35.0262 26.7634 35.0996 25.7746 35.0996 24.588C35.0996 23.9795 35.0702 23.3101 35.0115 22.5799C34.9822 21.8193 34.9235 21.1195 34.8354 20.4806C34.7767 19.8113 34.7034 19.2484 34.6153 18.792C34.5566 18.3052 34.4832 18.0162 34.3951 17.9249C35.1877 17.7728 36.0682 17.3773 37.0369 16.7383C38.0348 16.0994 39.0035 15.3084 39.9428 14.3652ZM43.6412 18.4269C42.7019 18.3356 41.7773 18.1835 40.8673 17.9705C39.9574 17.7576 39.2677 17.5294 38.798 17.286C38.8861 18.1683 38.9448 19.005 38.9741 19.796C39.0328 20.5871 39.0622 21.3781 39.0622 22.1692C39.0622 22.7777 39.0475 23.4775 39.0181 24.2685C39.0181 25.0292 38.9888 25.7898 38.9301 26.5504C39.6052 26.6113 40.3537 26.7177 41.1756 26.8699C42.0268 27.022 42.8193 27.2198 43.5531 27.4632L43.6412 18.4269Z" fill="inherit"/>
<path d="M22.3027 14C23.3301 14.6998 24.4455 15.3539 25.6489 15.9624C26.8817 16.5709 28.364 16.8904 30.0958 16.9208C30.0371 17.4076 29.9343 18.0465 29.7876 18.8376C29.6702 19.5982 29.5381 20.5566 29.3913 21.7128C29.2446 22.8385 29.1125 24.162 28.9951 25.6832C28.8777 27.174 28.8189 28.8779 28.8189 30.7946C28.8189 31.7378 28.8336 32.9092 28.863 34.3087C28.8923 35.7083 28.9364 37.1078 28.9951 38.5074C29.0831 39.9069 29.1859 41.2 29.3033 42.3866C29.4207 43.5427 29.5675 44.3642 29.7436 44.851C29.6262 44.851 29.5088 44.851 29.3913 44.851C29.3033 44.8206 29.2152 44.8054 29.1272 44.8054C27.5422 44.8054 25.9864 45.0944 24.4601 45.6725C22.9338 46.2506 21.5102 47.0264 20.1893 48C19.6903 47.6957 19.1033 47.4067 18.4282 47.1329C17.7531 46.8286 17.0486 46.57 16.3148 46.357C15.6104 46.1136 14.8766 45.9007 14.1134 45.7181C13.3796 45.5051 12.6751 45.3378 12 45.2161C12.6458 43.9383 13.5997 42.9647 14.8619 42.2953C16.124 41.5955 17.4596 41.2456 18.8685 41.2456C19.6317 41.2456 20.3655 41.3673 21.0699 41.6107C21.7744 41.8541 22.4055 42.2344 22.9632 42.7517C22.8751 41.991 22.8311 41.2304 22.8311 40.4698C22.8311 40.0743 22.8311 39.5723 22.8311 38.9638C22.8604 38.3248 22.8751 37.6859 22.8751 37.047C22.9044 36.3776 22.9191 35.7387 22.9191 35.1302C22.9485 34.4913 22.9632 33.974 22.9632 33.5785L17.5917 37.047C16.8872 36.1951 16.0947 35.4953 15.2141 34.9476C14.3335 34.3696 13.3649 33.898 12.3082 33.5329C12.543 32.468 12.7045 31.3575 12.7925 30.2013C12.9099 29.0148 12.9686 27.8282 12.9686 26.6416C12.9686 24.8161 12.8806 23.0971 12.7045 21.4846C12.5577 19.8416 12.411 18.4573 12.2642 17.3315C13.2622 17.3315 14.2748 17.2251 15.3022 17.0121C16.3295 16.7687 17.2834 16.4796 18.164 16.145C19.0739 15.8103 19.8812 15.4604 20.5856 15.0953C21.3194 14.6998 21.8918 14.3347 22.3027 14ZM20.9819 18.8376C20.8938 19.1114 20.7177 19.37 20.4535 19.6134C20.1894 19.8264 19.9105 20.0242 19.617 20.2067C19.3528 20.3893 19.0886 20.5414 18.8245 20.6631C18.5896 20.7848 18.4576 20.8608 18.4282 20.8913V32.2094L23.0512 29.106V20.4349L20.9819 18.8376Z" fill="inherit"/>
<path d="M41.7209 59.9998H18.2761C17.8268 59.9998 17.3932 59.8222 17.0772 59.5035L0.496275 42.9233C0.177617 42.6046 0 42.1737 0 41.7244V18.2754C0 17.8261 0.177617 17.3925 0.496275 17.0765L17.0772 0.49625C17.3958 0.177605 17.8268 0 18.2761 0H41.7239C42.1732 0 42.6068 0.177605 42.9228 0.49625L59.5037 17.0765C59.8224 17.3952 60 17.8261 60 18.2754V41.722C60 42.1713 59.8224 42.6048 59.5037 42.9209L42.9228 59.5011C42.6042 59.8224 42.1728 59.9998 41.7209 59.9998ZM18.9787 56.6044H41.0183L56.6038 41.0195V18.9804L41.0183 3.39554H18.9787L3.39318 18.9804V41.0219L18.9787 56.6044Z" fill="inherit"/>
</svg>
