<svg width="60" height="60" viewBox="0 0 60 60" fill="none" xmlns="http://www.w3.org/2000/svg">
<path d="M46 14.6061C45.2768 15.2462 44.4783 15.8558 43.6045 16.4349C42.7608 17.0141 41.8719 17.517 40.9379 17.9437C40.0038 18.3705 39.0395 18.721 38.0452 18.9953C37.0508 19.2392 36.0565 19.3611 35.0621 19.3611C34.7307 19.3611 34.4143 19.3611 34.113 19.3611C33.8117 19.3611 33.5104 19.3458 33.209 19.3154C33.1186 20.2298 33.0734 21.1594 33.0734 22.1043C33.0734 24.6952 33.0885 27.3013 33.1186 29.9226C33.1488 32.544 33.1638 35.3329 33.1638 38.2896C33.1638 39.8746 33.435 41.4138 33.9774 42.9074C34.5499 44.3705 35.3635 45.4373 36.4181 46.1079C35.1525 46.7175 34.0829 47.3576 33.209 48.0281C32.3653 48.7292 31.6121 49.7198 30.9492 51C30.4369 49.7503 29.6384 48.7444 28.5537 47.9824C27.4689 47.2509 26.2486 46.626 24.8927 46.1079C25.4953 45.2239 25.9473 44.0809 26.2486 42.6788C26.5499 41.2462 26.7006 39.8593 26.7006 38.5182C26.7006 37.2075 26.7006 36.0492 26.7006 35.0434C26.7006 34.007 26.7006 33.0469 26.7006 32.163C26.7307 31.279 26.7458 30.4256 26.7458 29.6026C26.7759 28.7796 26.791 27.8957 26.791 26.9508C26.8211 26.0059 26.8362 24.9695 26.8362 23.8417C26.8362 22.714 26.8362 21.388 26.8362 19.864C26.8362 19.6202 26.8362 19.3916 26.8362 19.1782C26.8362 18.9648 26.806 18.7362 26.7458 18.4924C24.7571 18.1266 22.8588 17.7608 21.0508 17.3951C19.2731 16.9988 17.646 16.8007 16.1695 16.8007C15.5066 16.8007 14.7985 16.8769 14.0452 17.0293L14 16.8921C15.6271 16.4045 16.9529 15.8101 17.9774 15.109C19.032 14.408 20.0866 13.5698 21.1412 12.5944C22.7081 13.0516 24.0339 13.4173 25.1186 13.6917C26.2335 13.966 27.258 14.1794 28.1921 14.3318C29.1563 14.4842 30.0904 14.5909 30.9943 14.6518C31.9284 14.6823 32.983 14.6975 34.1582 14.6975C33.8569 14.1794 33.646 13.7222 33.5254 13.3259C33.4049 12.8992 33.3296 12.4572 33.2994 12C34.2938 12.6401 35.2128 13.143 36.0565 13.5088C36.9303 13.8441 37.7589 14.1032 38.5424 14.286C39.3258 14.4385 40.1092 14.5299 40.8927 14.5604C41.6761 14.5909 42.4896 14.6061 43.3333 14.6061C43.8154 14.6061 44.2524 14.5909 44.6441 14.5604C45.0659 14.5299 45.4878 14.4842 45.9096 14.4232L46 14.6061Z" fill="black"/>
<path d="M41.7209 59.9998H18.2761C17.8268 59.9998 17.3932 59.8222 17.0772 59.5035L0.496275 42.9233C0.177617 42.6046 0 42.1737 0 41.7244V18.2754C0 17.8261 0.177617 17.3925 0.496275 17.0765L17.0772 0.49625C17.3958 0.177605 17.8268 0 18.2761 0H41.7239C42.1732 0 42.6068 0.177605 42.9228 0.49625L59.5037 17.0765C59.8224 17.3952 60 17.8261 60 18.2754V41.722C60 42.1713 59.8224 42.6048 59.5037 42.9209L42.9228 59.5011C42.6042 59.8224 42.1728 59.9998 41.7209 59.9998ZM18.9787 56.6044H41.0183L56.6038 41.0195V18.9804L41.0183 3.39554H18.9787L3.39318 18.9804V41.0219L18.9787 56.6044Z" fill="black"/>
</svg>
