<svg xmlns="http://www.w3.org/2000/svg" xml:space="preserve" width="100" height="100"><path d="M81.097 78.984v-16.15c5.705-6.576 8.993-15.183 8.8-24.563-.58-18.278-15.183-33.557-33.363-34.814-20.309-1.45-37.232 13.829-38.49 33.46l-.096.967c0 3.288-1.257 8.316-2.708 11.218-1.547 2.997-3.19 5.995-4.641 8.123-1.354 2.03.193 4.835 2.61 4.835h4.74v17.214a6.273 6.273 0 0 0 6.285 6.285h9.864v8.704c0 1.644 1.644 2.804 3.191 2.224l41.39-14.119a3.543 3.543 0 0 0 2.418-3.384z" style="stroke-width:.96705246"/><circle cx="54.797" cy="35.775" r="23.038" style="fill:#fff;stroke:#fff;stroke-width:1.02340794;stroke-linecap:round;stroke-miterlimit:4;stroke-dasharray:none;stroke-dashoffset:0"/><path d="M48.655 973.051c-15.79 0-28.655 12.866-28.655 28.656s12.866 28.655 28.655 28.655c15.79 0 28.656-12.866 28.656-28.655 0-15.79-12.866-28.656-28.656-28.656zm0 6.14a22.469 22.469 0 0 1 22.515 22.516 22.469 22.469 0 0 1-22.515 22.515 22.469 22.469 0 0 1-22.515-22.515 22.469 22.469 0 0 1 22.515-22.515zm0 4.094a3.07 3.07 0 0 0-3.07 3.07v15.352c0 1.135.619 2.123 1.535 2.654l11.514 6.652a3.064 3.064 0 0 0 4.19-1.119 3.064 3.064 0 0 0-1.12-4.19l-9.978-5.756v-13.592a3.07 3.07 0 0 0-3.07-3.07z" overflow="visible" style="color:#000;text-indent:0;text-transform:none;direction:ltr;baseline-shift:baseline;display:inline;overflow:visible;visibility:visible;fill:#000;fill-opacity:1;stroke:none;stroke-width:1.02340794;enable-background:accumulate" transform="translate(6.257 -965.467)"/></svg>